<?xml version="1.0" encoding="UTF-8"?>
<!DOCTYPE svg PUBLIC "-//W3C//DTD SVG 1.1//EN" "http://www.w3.org/Graphics/SVG/1.1/DTD/svg11.dtd">
<!-- Creator: CorelDRAW -->
<svg xmlns="http://www.w3.org/2000/svg" xml:space="preserve" width="250px" height="75px" style="shape-rendering:geometricPrecision; text-rendering:geometricPrecision; image-rendering:optimizeQuality; fill-rule:evenodd; clip-rule:evenodd"
viewBox="0 0 250 75.0002"
 xmlns:xlink="http://www.w3.org/1999/xlink">
 <defs>
  <style type="text/css">
   <![CDATA[
    .fil0 {fill:black;fill-rule:nonzero}
   ]]>
  </style>
 </defs>
 <g id="Layer_x0020_1">
  <metadata id="CorelCorpID_0Corel-Layer"/>
  <g id="_110124224">
   <path id="_109459888" class="fil0" d="M63.3971 54.1903c-3.14529,3.19725 -5.79333,5.5571 -7.92877,7.07719 -2.13662,1.52008 -4.05001,2.28072 -5.74018,2.28072 -1.61221,0 -3.02717,-0.524411 -4.24608,-1.57323 -1.20591,-1.04882 -2.66103,-2.62087 -4.35119,-4.71852 -5.22876,4.19411 -9.96027,6.29057 -14.2063,6.29057 -3.70867,0 -6.75002,-1.52008 -9.12168,-4.56143 -2.37166,-3.05316 -3.55159,-6.97207 -3.55159,-11.7957 0,-5.13781 1.00866,-10.3146 3.02717,-15.5044 2.0315,-5.20277 4.60041,-9.79019 7.70672,-13.7741 3.10631,-3.97088 5.66222,-6.63191 7.65357,-7.95593 2.00552,-1.33701 5.04569,-2.00552 9.14767,-2.00552l0.0649608 0.537403c-5.8323,5.47797 -10.0654,11.4024 -12.6993,17.7851 -2.63387,6.36971 -3.95789,12.4772 -3.95789,18.3095 0,3.78781 0.746459,6.75002 2.22757,8.88546 1.48111,2.13662 3.51261,3.21143 6.1075,3.21143 1.71733,0 3.6697,-0.681498 5.87128,-2.0315 -1.28386,-1.82127 -2.3067,-3.02717 -3.06733,-3.61773 -0.773624,-0.589372 -1.67717,-0.877562 -2.72599,-0.877562 -0.0791341,0 -0.327166,0.0389765 -0.760632,0.131103 -0.419293,0.0921263 -0.668506,0.131103 -0.74764,0.131103 -0.354332,0 -0.537403,-0.157087 -0.537403,-0.498427 0,-0.655514 0.760632,-1.63819 2.29371,-2.93623 1.52008,-1.28504 3.05316,-1.93938 4.62639,-1.93938 1.19292,0 2.29371,0.340159 3.27639,0.995672 0.98268,0.668506 2.14961,1.67717 3.47363,3.04017 8.16499,-10.4197 12.254,-20.5631 12.254,-30.4454 0,-2.22757 -0.367324,-4.01104 -1.10079,-5.32088 -0.720475,-1.32402 -1.69016,-1.97953 -2.89607,-1.97953 -2.22757,0 -4.29923,1.67717 -6.19963,5.03269 -1.91339,3.35552 -2.8571,6.30356 -2.8571,8.87247 0,1.91339 0.86457,2.9882 2.60788,3.22442 0.746459,0.0791341 1.11378,0.393308 1.11378,0.956696 0,1.15394 -0.589372,2.26772 -1.74331,3.34253 -1.16693,1.07481 -2.38583,1.61221 -3.63072,1.61221 -1.53308,0 -2.83111,-0.681498 -3.86576,-2.05749 -1.03583,-1.363 -1.54607,-3.10631 -1.54607,-5.20277 0,-4.43033 1.66418,-8.72837 5.00671,-12.8965 3.34253,-4.18112 6.72286,-6.26459 10.1575,-6.26459 2.42481,0 4.3382,0.956696 5.71419,2.8571 1.38898,1.91339 2.08347,4.54726 2.08347,7.88979 0,10.5237 -4.45631,21.4548 -13.3678,32.791 2.41182,3.56458 4.63938,5.34687 6.68388,5.34687 2.55591,0 5.80632,-2.35867 9.75121,-7.0642l0 4.41734 0 0.00236221z"/>
   <path id="_1094598881" class="fil0" d="M104.366 54.1903c-3.36851,3.19725 -6.19963,5.5571 -8.47916,7.07719 -2.28072,1.52008 -4.32521,2.28072 -6.14648,2.28072 -2.01851,0 -3.57757,-0.799609 -4.66537,-2.41182 -1.0878,-1.61221 -1.6252,-3.8008 -1.6252,-6.56577 -2.81812,3.09332 -5.34687,5.37403 -7.56262,6.85396 -2.22757,1.46811 -4.40316,2.20158 -6.53978,2.20158 -1.93938,0 -3.49962,-0.799609 -4.67836,-2.41182 -1.17992,-1.61221 -1.7693,-3.8008 -1.7693,-6.56577 0,-5.33388 1.79528,-12.8304 5.37403,-22.5024l10.2225 -2.0315c-4.2071,12.254 -6.30356,20.1308 -6.30356,23.6044 0,2.46379 0.930712,3.69568 2.76497,3.69568 1.33701,0 2.9882,-1.0878 4.95356,-3.2504 1.97953,-2.16261 3.19844,-4.05001 3.68269,-5.66222l5.03269 -16.356 10.4457 -2.11064c-2.41182,7.70672 -4.063,13.1197 -4.95356,16.2378 -0.891735,3.1193 -1.33701,5.30789 -1.33701,6.56577 0,2.41182 0.812601,3.60474 2.4508,3.60474 1.33701,0 3.30237,-1.20591 5.91144,-3.64371l3.22442 -3.02717 0 4.41734 -0.00236221 0z"/>
   <path id="_10945988812" class="fil0" d="M122.452 15.0957c0,6.14648 -2.26772,9.21381 -6.789,9.21381 -2.20158,0 -4.08899,-0.668506 -5.64923,-1.99253 1.48111,-2.25473 2.63387,-4.78348 3.45946,-7.6016 2.01851,1.25788 3.64371,1.87442 4.87561,1.87442 1.37599,0 2.75198,-0.498427 4.10198,-1.4941l0.00118111 0zm0.773624 39.0946c-5.98939,6.29057 -10.4717,9.43586 -13.4469,9.43586 -1.63819,0 -3.01418,-0.838585 -4.14096,-2.51694 -1.12678,-1.67717 -1.69016,-3.77482 -1.69016,-6.31656 0,-5.45199 1.84843,-13.0016 5.53112,-22.6477l9.75121 -2.0315 0.458269 0 -3.83978 12.0178c-1.58623,4.96773 -2.37166,8.50633 -2.37166,10.6288 0,0.851577 0.183071,1.53308 0.550395,2.05749 0.380316,0.524411 0.838585,0.786617 1.40197,0.786617 0.995672,0 2.00552,-0.367324 3.01418,-1.10079 1.00866,-0.720475 2.60788,-2.3067 4.78348,-4.73151l0 4.41734 -0.00118111 0.00118111z"/>
   <path id="_109459888123" class="fil0" d="M160.919 54.1112c-5.80632,6.34372 -10.6288,9.51499 -14.4685,9.51499 -1.84843,0 -3.3945,-0.642522 -4.65238,-1.93938 -1.24489,-1.28504 -1.87442,-2.88308 -1.87442,-4.77049 0,-0.904727 0.157087,-2.24174 0.458269,-4.03702 0.301182,-1.79528 0.458269,-2.80513 0.458269,-3.04017 0,-1.16693 -0.668506,-1.78229 -1.99253,-1.82127 -1.33701,-0.0389765 -1.99253,-0.550395 -1.99253,-1.54607 0,-0.877562 0.183071,-1.48111 0.550395,-1.82127 0.367324,-0.354332 1.07481,-0.524411 2.09646,-0.524411 2.80513,-0.0791341 4.91458,-0.655514 6.29057,-1.74331 1.38898,-1.0878 2.07048,-2.38583 2.07048,-3.86576 0,-1.04882 -0.367324,-1.91339 -1.12678,-2.59489 -0.760632,-0.668506 -1.71733,-1.00866 -2.89607,-1.00866 -0.642522,0 -1.25788,0.0791341 -1.84843,0.223229 -0.616537,0.157087 -1.20591,0.393308 -1.7693,0.69449 -0.589372,0.34134 -1.19292,0.760632 -1.83426,1.27087 -0.616537,0.537403 -1.27087,1.19292 -1.96536,1.95237 -0.668506,0.74764 -1.38898,1.6252 -2.18859,2.64686 -0.4063,0.537403 -0.917719,3.06615 -1.53308,7.57561 -0.301182,2.31969 -0.511419,4.46931 -0.616537,6.44766 -0.105118,1.83426 -0.118111,3.9319 -0.0389765,6.25159l-8.71538 1.46811c-0.327166,-1.95237 -0.498427,-4.32521 -0.498427,-7.14333 0,-7.67955 1.03583,-15.0189 3.10631,-22.0052 2.08347,-6.98506 5.46498,-14.1674 10.1835,-21.5457 3.6567,-1.48111 6.81498,-2.63387 9.47601,-3.47363 2.67402,-0.825593 4.15513,-1.24489 4.45631,-1.24489 0.616537,0 1.2189,0.616537 1.80827,1.84843 0.589372,1.2189 0.877562,2.51694 0.877562,3.87875 0,2.26772 -0.74764,4.7575 -2.25473,7.4575 -1.52008,2.70001 -3.85277,5.9634 -7.03821,9.7772 2.1756,-0.642522 3.98387,-0.956696 5.41301,-0.956696 2.38583,0 4.3382,0.603545 5.84529,1.82127 1.50709,1.2189 2.26772,2.75198 2.26772,4.62639 0,4.24608 -3.82678,7.36538 -11.4804,9.3709 2.9882,0.69449 4.4823,2.4378 4.4823,5.25592l-0.223229 3.45946c0,1.55906 0.733467,2.34568 2.18859,2.34568 1.02166,0 2.18859,-0.511419 3.48663,-1.50709 1.31103,-0.995672 3.14529,-2.89607 5.49096,-5.71419l0 4.41734 0.00118111 -0.00118111zm-25.1765 -18.5056l2.52993 -2.80513c7.49648,-8.45318 11.2453,-14.4036 11.2453,-17.863 0,-1.58623 -0.681498,-2.37284 -2.07048,-2.37284 -1.58623,0 -3.40749,1.86142 -5.46498,5.59608 -2.07048,3.74883 -4.14214,9.55397 -6.2386,17.4438l-0.00118111 0.00118111z"/>
   <path id="_1094598881234" class="fil0" d="M184.077 42.0545l-1.80827 4.18112c-0.891735,2.09646 -1.6252,3.36851 -2.18859,3.82678 -0.563388,0.445277 -1.66418,0.668506 -3.30237,0.668506l-8.47916 -0.314174c-1.17992,0 -2.20158,0.340159 -3.06615,1.00866 -0.393308,0.249213 -0.707483,0.380316 -0.969688,0.380316 -0.760632,0 -1.02166,-0.28819 -0.760632,-0.851577l2.11064 -4.94057c0.537403,-1.28386 1.10079,-2.12363 1.69016,-2.50276 0.589372,-0.380316 1.88741,-0.589372 3.91891,-0.616537l6.33073 0c2.3067,0 3.76182,-0.249213 4.37718,-0.760632 0.616537,-0.511419 1.04882,-0.773624 1.31103,-0.773624 0.760632,0 1.04882,0.236221 0.838585,0.69449l-0.00236221 0z"/>
   <path id="_10945988812345" class="fil0" d="M229.345 62.6376c0,0.934255 -0.033071,1.70434 -0.114567,2.32678 -0.0814963,0.622443 -0.196064,1.13032 -0.360237,1.52363 -0.164174,0.376773 -0.360237,0.655514 -0.605907,0.835042 -0.229135,0.180709 -0.507876,0.262206 -0.786617,0.262206l-31.1918 0c-1.06536,0 -1.95001,-0.311812 -2.67048,-0.934255 -0.720475,-0.622443 -1.08189,-1.63819 -1.08189,-3.04725l0 -54.1443c0,-1.40906 0.360237,-2.42481 1.08189,-3.04725 0.720475,-0.622443 1.60512,-0.934255 2.67048,-0.934255l30.9958 0c0.295277,0 0.540947,0.0814963 0.770081,0.24567 0.229135,0.147638 0.409844,0.426379 0.572836,0.835042 0.164174,0.393308 0.278741,0.917719 0.360237,1.54016 0.0814963,0.622443 0.131103,1.40906 0.131103,2.3752 0,0.884648 -0.0496065,1.65473 -0.131103,2.27717 -0.0814963,0.622443 -0.196064,1.13032 -0.360237,1.50709 -0.164174,0.393308 -0.343702,0.672049 -0.572836,0.835042 -0.229135,0.180709 -0.474805,0.262206 -0.770081,0.262206l-22.1658 0 0 15.1701 18.7583 0c0.295277,0 0.557482,0.0980318 0.803152,0.262206 0.229135,0.180709 0.426379,0.458269 0.589372,0.818507 0.164174,0.376773 0.278741,0.868113 0.360237,1.49056 0.0814963,0.622443 0.114567,1.37599 0.114567,2.27717 0,0.934255 -0.033071,1.70434 -0.114567,2.31024 -0.0814963,0.605907 -0.196064,1.09725 -0.360237,1.45748 -0.164174,0.376773 -0.360237,0.638978 -0.589372,0.786617 -0.24567,0.164174 -0.507876,0.24567 -0.803152,0.24567l-18.7583 0 0 17.5123 22.3619 0c0.278741,0 0.557482,0.0980318 0.786617,0.278741 0.24567,0.164174 0.442915,0.442915 0.605907,0.835042 0.164174,0.376773 0.278741,0.884648 0.360237,1.50709 0.0814963,0.622443 0.114567,1.40906 0.114567,2.32678l0 0.00354332z"/>
   <path id="_109461664" class="fil0" d="M62.236 57.3959c-3.43938,3.49726 -6.33427,6.07679 -8.6705,7.73861 -2.33623,1.663 -4.42797,2.49331 -6.27758,2.49331 -1.76339,0 -3.31064,-0.572836 -4.64411,-1.71969 -1.31811,-1.14685 -2.90906,-2.86654 -4.75868,-5.15907 -5.71892,4.58623 -10.8922,6.87876 -15.5363,6.87876 -4.05592,0 -7.38073,-1.663 -9.97444,-4.98781 -2.59371,-3.33899 -3.88348,-7.62404 -3.88348,-12.8989 0,-5.61852 1.10315,-11.2796 3.31064,-16.9548 2.22166,-5.68939 5.03033,-10.7055 8.42719,-15.0626 3.39686,-4.34293 6.19136,-7.25199 8.36932,-8.69885 2.19213,-1.46221 5.51813,-2.19213 10.004,-2.19213l0.0720475 0.58701c-6.37797,5.99057 -11.0067,12.4689 -13.8874,19.4481 -2.88072,6.96498 -4.32875,13.6441 -4.32875,20.0221 0,4.14214 0.817325,7.38073 2.43662,9.71696 1.6193,2.33623 3.84096,3.51143 6.67797,3.51143 1.87796,0 4.0134,-0.745278 6.42049,-2.22166 -1.40434,-1.99253 -2.52284,-3.31064 -3.35316,-3.95552 -0.845672,-0.644884 -1.83426,-0.960239 -2.98111,-0.960239 -0.0862207,0 -0.357875,0.0425198 -0.831499,0.142914 -0.458269,0.100394 -0.731105,0.142914 -0.817325,0.142914 -0.387403,0 -0.588191,-0.172441 -0.588191,-0.54449 0,-0.716931 0.831499,-1.79174 2.50867,-3.21025 1.663,-1.40434 3.33899,-2.12127 5.05868,-2.12127 1.30394,0 2.50749,0.372048 3.58229,1.08898 1.07481,0.731105 2.3504,1.83426 3.79844,3.32481 8.92916,-11.3941 13.4008,-22.4871 13.4008,-33.293 0,-2.43662 -0.401576,-4.38545 -1.20355,-5.81931 -0.787798,-1.44804 -1.84843,-2.16379 -3.16773,-2.16379 -2.43662,0 -4.7008,1.83426 -6.77837,5.50395 -2.09292,3.66852 -3.12403,6.89412 -3.12403,9.70279 0,2.09292 0.946066,3.26812 2.85237,3.5256 0.817325,0.0862207 1.21772,0.429923 1.21772,1.04646 0,1.26142 -0.644884,2.47914 -1.90631,3.65434 -1.27559,1.1752 -2.60788,1.76339 -3.9697,1.76339 -1.67717,0 -3.09568,-0.745278 -4.22836,-2.25001 -1.13268,-1.49056 -1.69134,-3.39686 -1.69134,-5.68939 0,-4.84372 1.82008,-9.54452 5.47443,-14.1024 3.65434,-4.57206 7.35239,-6.85042 11.1071,-6.85042 2.65158,0 4.74332,1.04646 6.24923,3.12403 1.5189,2.09292 2.27835,4.97364 2.27835,8.62798 0,11.5087 -4.87324,23.4615 -14.6185,35.8584 2.63741,3.89883 5.07285,5.84766 7.30868,5.84766 2.7945,0 6.34845,-2.57954 10.663,-7.72443l0 4.82954 0.00236221 0z"/>
  </g>
 </g>
</svg>
